HIERARCHY
ROOT hip
{
	OFFSET 0.000000 0.000000 0.000000 
	CHANNELS 6 Xposition Yposition Zposition Xrotation Zrotation Yrotation
	JOINT abdomen
	{
		OFFSET 0.000000 3.402643 0.000000 
		CHANNELS 3 Xrotation Zrotation Yrotation
		JOINT chest
		{
			OFFSET 0.000000 8.438565 -0.680529 
			CHANNELS 3 Xrotation Zrotation Yrotation
			JOINT neck
			{
				OFFSET 0.000000 10.207942 -0.272212 
				CHANNELS 3 Xrotation Zrotation Yrotation
				JOINT head
				{
					OFFSET 0.000000 3.130431 0.000000 
					CHANNELS 3 Xrotation Zrotation Yrotation
					End Site
					{
						OFFSET 0.000000 3.130435 0.000000 
					}
				}
			}
			JOINT lCollar
			{
				OFFSET 3.470700 6.669187 -0.816635 
				CHANNELS 3 Yrotation Zrotation Xrotation
				JOINT lShldr
				{
					OFFSET 3.198488 0.000000 0.000000 
					CHANNELS 3 Zrotation Yrotation Xrotation
					JOINT lForeArm
					{
						OFFSET 10.139888 0.000000 0.000000 
						CHANNELS 3 Yrotation Zrotation Xrotation
						JOINT lHand
						{
							OFFSET 8.370511 0.000000 0.000000 
							CHANNELS 3 Zrotation Yrotation Xrotation
							End Site
							{
								OFFSET 4.083176 0.000000 0.000000 
							}
						}
					}
				}
			}
			JOINT rCollar
			{
				OFFSET -3.470700 6.669187 -0.816635 
				CHANNELS 3 Yrotation Zrotation Xrotation
				JOINT rShldr
				{
					OFFSET -3.198488 0.000000 0.000000 
					CHANNELS 3 Zrotation Yrotation Xrotation
					JOINT rForeArm
					{
						OFFSET -10.139888 0.000000 0.000000 
						CHANNELS 3 Yrotation Zrotation Xrotation
						JOINT rHand
						{
							OFFSET -8.370511 0.000000 0.000000 
							CHANNELS 3 Zrotation Yrotation Xrotation
							End Site
							{
								OFFSET -4.083176 0.000000 0.000000 
							}
						}
					}
				}
			}
		}
	}
	JOINT lThigh
	{
		OFFSET 5.308129 -1.633274 1.361059 
		CHANNELS 3 Xrotation Zrotation Yrotation
		JOINT lShin
		{
			OFFSET -2.041588 -20.007561 0.000000 
			CHANNELS 3 Xrotation Zrotation Yrotation
			JOINT lFoot
			{
				OFFSET 0.000000 -19.190928 -1.224953 
				CHANNELS 3 Xrotation Yrotation Zrotation
				End Site
				{
					OFFSET 0.000000 -2.449906 4.627600 
				}
			}
		}
	}
	JOINT rThigh
	{
		OFFSET -5.308129 -1.633274 1.361059 
		CHANNELS 3 Xrotation Zrotation Yrotation
		JOINT rShin
		{
			OFFSET 2.041588 -20.007561 0.000000 
			CHANNELS 3 Xrotation Zrotation Yrotation
			JOINT rFoot
			{
				OFFSET 0.000000 -19.190928 -1.224953 
				CHANNELS 3 Xrotation Yrotation Zrotation
				End Site
				{
					OFFSET 0.000000 -2.449906 4.627600 
				}
			}
		}
	}
}
MOTION
Frames: 19
Frame Time: 0.033333
-2.963999 51.350014 3.212583 10.419922 6.025390 -35.623974 37.850681 -6.399708 -6.471487 -28.916016 14.501953 2.509766 51.063168 8.107644 2.471410 -75.332031 -9.677733 -11.621095 2.000000 -2.000000 0.000000 -40.136719 39.111328 -65.814156 -110.117020 1.033005 -2.804689 -17.143396 46.435509 -27.424721 -2.000000 2.000000 0.000000 7.910156 2.753906 -81.503441 106.907074 -1.308956 -2.937635 21.149498 -44.704636 -61.179623 -30.496351 16.327198 5.512950 58.380108 -3.050007 -4.417582 21.956463 19.215157 -20.895981 -19.579277 -3.280903 -23.482458 6.782530 5.171980 0.558437 8.553143 -11.144126 2.667219 
-5.929860 51.175564 6.440880 9.335938 4.501953 -34.931641 37.276798 -7.379707 -3.692080 -25.009768 12.480469 4.746094 51.063168 8.107644 2.471410 -76.025398 -9.560545 -19.248049 2.000000 -2.000000 0.000000 -45.449219 41.074219 -73.066406 -105.546432 1.033570 -2.794944 -20.114277 43.039356 -43.734596 -2.000000 2.000000 0.000000 3.535156 2.333984 -81.669518 110.751205 -1.811813 -2.869238 28.549290 -41.269875 -68.408501 -37.960175 17.690313 5.297605 59.251358 -2.817205 -4.518194 16.739687 19.447401 -19.399389 -18.236347 -4.136898 -21.626375 17.543112 4.962459 1.451182 0.508326 -11.120874 4.012102 
-8.894807 50.600376 9.661345 8.271484 3.125000 -34.169392 37.126656 -8.138958 -1.613573 -23.066408 11.181642 6.259767 51.063168 8.107644 2.471410 -75.751953 -8.955077 -25.361330 2.000000 -2.000000 0.000000 -50.527344 42.822266 -79.824219 -102.036530 0.720049 -2.972146 -21.098787 39.358990 -56.533951 -2.000000 2.000000 0.000000 2.753906 -2.089844 -77.637070 114.974907 -1.626732 -3.024458 22.826082 -44.032204 -60.496872 -44.958855 19.032215 4.404905 58.904732 -2.856290 -4.337173 11.414792 19.041435 -17.832939 -17.701069 -5.602186 -20.651300 27.595745 4.521155 2.301996 -2.277291 -11.500765 5.363074 
-11.856065 50.949715 12.850309 7.187500 1.728516 -33.544922 37.236961 -9.416746 -0.381164 -24.306641 11.582032 6.759773 51.063168 8.107644 2.471410 -73.720703 -8.613281 -28.593752 2.000000 -2.000000 0.000000 -54.599609 44.589840 -84.248047 -101.137810 1.032868 -2.638451 -20.327911 36.176003 -61.513020 -2.000000 2.000000 0.000000 5.156250 -14.384766 -63.488754 120.788124 -1.972627 -2.458431 -19.640385 -48.245678 -11.501477 -49.131870 19.741768 3.892680 55.907303 -2.894766 -4.261537 7.264830 17.560696 -16.103626 -17.681532 -7.779018 -22.336535 38.148865 3.944630 2.868164 3.883435 -11.252029 4.308780 
-14.810680 51.089455 15.984285 6.142578 0.498047 -33.007687 37.653328 -10.708748 0.166871 -27.509768 12.724610 6.308594 51.063168 8.107644 2.471410 -72.099609 -8.691405 -27.657726 2.000000 -2.000000 0.000000 -57.578125 41.523438 -90.078125 -105.195320 0.847769 -2.793768 -20.449579 33.941563 -54.973812 -2.000000 2.000000 0.000000 4.794922 -29.296877 -42.412106 126.925552 -2.205597 -2.657391 -57.162441 -21.219015 35.381798 -48.299732 19.413603 3.663991 45.197468 -3.664715 -3.712066 4.521553 14.638737 -14.730060 -18.260052 -10.222377 -24.633013 48.342934 3.271156 3.801325 14.870480 -13.425448 2.282001 
-17.767143 50.336803 19.088869 5.087891 -0.722656 -32.959106 38.372223 -11.658802 0.078900 -29.492186 13.642579 6.047225 51.063168 8.107644 2.471410 -72.304688 -8.828124 -23.183594 2.000000 -2.000000 0.000000 -58.164059 35.019531 -94.720963 -113.094383 1.317427 -2.791900 -19.797060 32.266415 -39.522343 -2.000000 2.000000 0.000000 4.746094 -38.798828 -26.881117 129.568253 -2.329945 -2.537878 -65.401299 3.536434 48.930450 -43.857655 18.574581 3.400347 30.594149 -4.592500 -2.779016 3.302220 10.825261 -13.654588 -20.438311 -12.293414 -24.319193 57.124367 2.626800 4.036178 21.541977 -18.108175 2.379195 
-20.732523 49.369110 22.200630 4.218750 -1.406233 -34.238850 39.309986 -11.704180 -0.190417 -29.677736 13.642579 5.996094 51.063168 8.107644 2.471410 -74.511719 -9.150389 -17.294926 2.000000 -2.000000 0.000000 -60.156250 28.574219 -96.772675 -120.468407 1.763363 -2.524789 -15.368578 30.158140 -23.885809 -2.000000 2.000000 0.000000 16.826172 -44.160160 -30.553680 128.149399 -2.247558 -2.777163 -64.982750 3.949919 43.989326 -39.586082 17.849827 3.277528 23.197887 -4.779276 -2.374537 2.145453 8.438743 -13.463043 -27.279947 -13.715757 -18.475861 64.847443 2.186674 3.954599 21.461432 -24.714613 8.358197 
-23.702641 46.079178 25.312155 3.339844 -1.943359 -36.357754 40.273899 -11.657047 -0.623209 -29.121096 13.642580 6.142578 51.063168 8.107644 2.471410 -77.919922 -10.048827 -9.589845 2.000000 -2.000000 0.000000 -66.289063 25.390625 -91.167686 -126.789200 1.973085 -2.282780 -5.133625 24.792280 -13.057595 -2.000000 2.000000 0.000000 37.900387 -44.931637 -45.458984 124.128304 -1.902945 -2.815854 -60.902420 -6.221826 30.502531 -37.604355 18.836317 1.515371 25.647038 -4.697129 -2.385168 1.846602 9.097777 -14.878879 -36.009331 -13.863609 -11.095283 71.147301 1.445307 4.631443 19.470535 -33.798153 15.540431 
-26.672874 45.324852 28.416273 1.757813 -2.832031 -37.734379 41.315136 -11.354112 -1.540164 -28.408203 13.261719 6.125288 51.063168 8.107644 2.471410 -81.220703 -11.005858 -0.958896 2.000000 -2.000000 0.000000 -72.060547 23.505859 -80.562515 -132.422119 2.326321 -2.264266 7.935616 16.624666 -4.120167 -2.000000 2.000000 0.000000 58.173828 -40.117188 -60.458984 119.568169 -1.541973 -3.136894 -51.982506 -17.781023 13.846174 -36.236252 20.203049 -0.392205 34.090992 -4.293442 -3.005389 0.515003 10.287501 -16.830915 -40.864929 -12.801530 -4.180585 74.119713 1.171768 4.542956 18.135138 -39.430698 20.231033 
-29.639175 44.534832 31.505817 -1.240234 -4.228516 -37.725330 41.595505 -11.062390 -3.151692 -27.880861 12.373047 5.693360 51.063168 8.107644 2.471410 -80.791016 -12.363280 3.650254 2.000000 -2.000000 0.000000 -72.822258 22.783205 -71.431763 -135.928070 2.287325 -2.261992 17.001909 10.482964 0.831126 -2.000000 2.000000 0.000000 72.080078 -35.800781 -68.706879 116.054054 -1.413224 -2.826567 -43.337063 -24.285030 -0.424938 -34.665199 21.922432 -2.709365 43.806465 -3.886316 -3.529094 0.174615 10.603395 -18.278265 -38.404324 -12.577431 0.548158 69.913460 1.581416 4.448486 14.541488 -37.493694 16.452271 
-32.597031 43.696613 34.573368 -4.785156 -5.957031 -37.128906 40.942341 -10.615935 -5.729731 -27.744141 10.791016 4.794922 51.063168 8.107644 2.471410 -74.628906 -13.759764 3.574219 2.000000 -2.000000 0.000000 -68.378906 23.369141 -65.380859 -135.759323 2.428921 -2.182654 22.989738 10.726998 5.204183 -2.000000 2.000000 0.000000 77.597656 -36.708984 -69.443359 113.763565 -1.355445 -2.979436 -41.438080 -26.349707 -2.819347 -32.369904 23.250084 -5.015982 52.772671 -3.579976 -4.261897 0.972948 10.679153 -19.778698 -32.219193 -12.781003 4.285631 62.191788 2.178791 4.266219 10.774605 -32.373432 11.731471 
-35.542160 44.380676 37.611652 -8.515625 -7.480468 -36.162109 39.885483 -10.193180 -9.644295 -27.792971 8.349609 3.486328 51.063168 8.107644 2.471410 -65.478516 -15.126953 2.304687 2.000000 -2.000000 0.000000 -60.937500 25.302736 -61.841530 -133.299500 2.184060 -2.187892 26.898603 14.612647 8.463524 -2.000000 2.000000 0.000000 77.607422 -40.917969 -66.334518 112.546059 -1.203002 -3.078180 -42.868004 -27.345272 -0.496133 -29.043207 23.695332 -6.586953 60.597725 -2.106084 -4.472476 2.381083 9.553833 -20.127090 -26.997398 -12.049353 6.977140 59.184887 1.915401 4.014222 11.158102 -29.467638 10.095141 
-38.470158 44.015827 40.613590 -12.109375 -8.945312 -35.226131 38.289482 -9.972329 -12.870288 -27.666016 6.230469 2.207031 51.063168 8.107644 2.471410 -55.654297 -17.587887 0.214844 2.000000 -2.000000 0.000000 -52.001957 27.958982 -59.765625 -130.479706 2.266124 -2.290091 28.957212 19.583054 12.047372 -2.000000 2.000000 0.000000 76.591797 -44.990234 -63.525391 111.666847 -1.204394 -2.716672 -43.827263 -29.056253 2.025005 -25.072950 23.805254 -9.231036 67.963509 -1.529732 -4.491974 5.872866 8.609401 -19.517260 -23.805691 -10.262880 9.905563 63.402939 1.651450 4.529816 17.979761 -30.955589 13.204799 
-41.376747 43.259315 43.571793 -15.214844 -10.214844 -34.541016 37.062363 -10.079402 -14.781286 -27.509768 5.000000 1.826172 51.063168 8.107644 2.471410 -46.621094 -21.435543 -3.906251 2.000000 -2.000000 0.000000 -41.708984 28.642578 -60.669147 -127.140732 1.982834 -2.283350 27.149292 24.730768 14.600538 -2.000000 2.000000 0.000000 76.513672 -49.042973 -64.521484 111.842903 -1.203828 -2.726417 -42.482166 -32.383987 2.628460 -21.616728 23.727459 -11.016249 74.474419 -0.964606 -4.610611 10.571418 8.200194 -18.910328 -21.639421 -7.392400 12.086975 71.822678 1.211377 4.769866 28.064646 -32.208740 18.944036 
-44.257648 42.350098 46.479080 -17.431641 -11.611329 -34.738293 35.865463 -10.678529 -14.824638 -26.992189 4.628906 2.382812 51.063168 8.107644 2.471410 -40.009766 -25.234375 -8.701175 2.000000 -2.000000 0.000000 -30.791016 27.626953 -64.018913 -123.274475 1.853496 -2.656849 22.923525 30.643555 16.806204 -2.000000 2.000000 0.000000 77.041016 -54.355469 -68.523560 112.541122 -1.222906 -2.903324 -40.957268 -36.106804 3.115136 -18.283871 24.232647 -11.713387 79.350975 -0.516225 -4.669159 17.917915 9.942225 -19.351696 -19.440369 -4.667718 13.156069 80.758644 0.381026 4.840082 39.676411 -30.196793 26.022892 
-47.109158 40.042439 49.252945 -19.326170 -12.968750 -35.295162 34.469463 -11.335370 -14.430940 -26.455078 4.794922 3.145347 51.063168 8.107644 2.471410 -37.822273 -27.783203 -10.039064 2.000000 -2.000000 0.000000 -24.248045 26.396484 -67.485886 -120.997345 1.614295 -2.564710 18.751966 34.629833 17.851025 -2.000000 2.000000 0.000000 79.843750 -57.480469 -72.684021 113.764694 -1.323941 -3.016727 -38.899693 -38.305367 2.773500 -15.426058 24.654951 -12.108015 83.439171 -0.360180 -4.799230 27.020147 12.528949 -20.942020 -17.503155 -2.305579 14.974970 87.564789 -0.624662 4.943726 50.843533 -25.576441 32.231514 
-49.885571 38.790085 51.814812 -20.488281 -13.896485 -35.891022 33.207142 -12.025064 -13.641583 -25.742189 5.117187 4.277345 51.063168 8.107644 2.471410 -40.585938 -29.208982 -8.149299 2.000000 -2.000000 0.000000 -24.785156 27.333984 -70.859375 -122.396156 1.823117 -2.674639 15.734871 34.225956 19.586527 -2.000000 2.000000 0.000000 88.115234 -57.656250 -78.935547 116.400757 -1.412812 -3.002310 -37.316013 -37.073353 2.323702 -13.133705 24.618130 -12.736983 86.041611 -0.282725 -4.967059 36.088821 14.794796 -23.976112 -15.437688 -0.214855 16.319344 90.177155 -0.898192 4.868402 64.270836 -19.526834 37.701256 
-52.519066 37.301636 54.162834 -20.312500 -13.740236 -36.506226 31.875404 -12.728466 -12.426643 -25.205078 5.644531 5.410157 51.063168 8.107644 2.471410 -46.464844 -30.185547 -5.214847 2.000000 -2.000000 0.000000 -29.628906 29.199219 -74.101563 -125.207397 1.922871 -2.641327 12.234319 31.852755 20.077204 -2.000000 2.000000 0.000000 97.900391 -54.638676 -84.461090 119.223930 -1.342875 -3.027600 -35.867870 -33.658947 1.713648 -11.822196 23.326260 -14.469093 87.831017 -0.478307 -5.165499 45.139465 16.330837 -29.375734 -13.683785 1.870293 17.755716 90.511024 -1.123106 4.861184 78.049194 -11.728024 42.002266 
-54.941608 35.640713 56.295502 -18.857422 -11.513671 -36.398430 30.707148 -13.534330 -11.053633 -24.658203 6.162110 6.572266 51.063168 8.107644 2.471410 -56.347656 -30.927732 -1.289064 2.000000 -2.000000 0.000000 -33.330078 28.261721 -71.313736 -123.450233 1.863245 -2.657416 12.157473 30.220808 19.140490 -2.000000 2.000000 0.000000 101.464844 -49.472660 -84.294533 119.744080 -1.425799 -2.778405 -34.032345 -31.309103 0.581107 -11.528054 21.274445 -16.778738 88.725174 -0.634825 -5.210604 54.092175 16.601183 -36.023087 -14.401206 2.507694 18.154926 91.585373 -1.054851 4.690803 87.598709 -6.141041 40.640053 
